<svg xmlns="http://www.w3.org/2000/svg" width="77" height="59" viewBox="0 0 77 59"><g><g><g><path fill="#fff" d="M23.252-.05c1.46 0 2.881.384 4.05 1.095l7.2 4.38H60.75c2.984 0 5.845.961 7.955 2.673C70.815 9.808 72 12.13 72 14.55v11.888a26.053 26.053 0 0 0-4.5-2.398v-9.49c0-1.452-.711-2.845-1.977-3.871-1.266-1.027-2.983-1.604-4.773-1.604H34.285l-6.574 5.6c-.63.537-1.39.965-2.23 1.257a8.12 8.12 0 0 1-2.662.443H4.5v25.55c0 1.452.711 2.845 1.977 3.871C7.743 46.823 9.46 47.4 11.25 47.4h21.181a17.912 17.912 0 0 0 1.769 3.65H11.25c-2.984 0-5.845-.961-7.955-2.673C1.185 46.667 0 44.345 0 41.925V9.075c0-2.42 1.185-4.741 3.295-6.452C5.405.91 8.266-.05 11.25-.05zM4.5 12.725h18.32c.305 0 .607-.05.888-.147.28-.097.534-.24.745-.419l5.67-4.836-5.521-3.358a2.612 2.612 0 0 0-1.35-.365H11.25c-1.79 0-3.507.577-4.773 1.604C5.211 6.23 4.5 7.623 4.5 9.075z"/></g><g><path fill="#fff" d="M76.5 41.925c0 4.356-2.134 8.534-5.931 11.614-3.798 3.08-8.948 4.811-14.319 4.811-5.37 0-10.521-1.73-14.319-4.81C38.133 50.458 36 46.28 36 41.924s2.133-8.534 5.931-11.614S50.88 25.5 56.25 25.5c5.37 0 10.521 1.73 14.319 4.81 3.797 3.081 5.931 7.259 5.931 11.615zm-18-7.3c0-.484-.237-.948-.659-1.29-.422-.343-.994-.535-1.591-.535s-1.169.192-1.591.535c-.422.342-.659.806-.659 1.29V40.1h-6.75c-.597 0-1.169.192-1.591.534-.422.343-.659.807-.659 1.291 0 .484.237.948.659 1.29.422.343.994.535 1.591.535H54v5.475c0 .484.237.948.659 1.29.422.343.994.535 1.591.535s1.169-.192 1.591-.534c.422-.343.659-.807.659-1.291V43.75h6.75c.597 0 1.169-.192 1.591-.534.422-.343.659-.807.659-1.291 0-.484-.237-.948-.659-1.29-.422-.343-.994-.535-1.591-.535H58.5z"/></g></g></g></svg>