<svg xmlns="http://www.w3.org/2000/svg" width="40" height="33" viewBox="0 0 30 23"><g><g><g><path fill="#fff" d="M28.333.2c.3 0 .59.133.802.371.212.238.332.56.332.896 0 .336-.12.658-.332.895-.213.238-.501.371-.802.371h-27.2c-.3 0-.589-.133-.801-.37A1.346 1.346 0 0 1 0 1.466C0 1.13.12.809.332.57.544.333.832.2 1.133.2zM0 11.6c0-.336.12-.658.332-.896.212-.237.5-.37.801-.37h27.2c.3 0 .59.133.802.37.212.238.332.56.332.896 0 .336-.12.658-.332.896-.213.237-.501.37-.802.37h-27.2c-.3 0-.589-.133-.801-.37A1.346 1.346 0 0 1 0 11.6zm0 10.133c0-.336.12-.658.332-.895.212-.238.5-.371.801-.371h27.2c.3 0 .59.133.802.37.212.238.332.56.332.896 0 .336-.12.658-.332.896-.213.237-.501.371-.802.371h-27.2c-.3 0-.589-.134-.801-.371A1.346 1.346 0 0 1 0 21.733z"/></g></g></g></svg>